
ffmpeg version 2.8.4 Copyright (c) 2000-2015 the FFmpeg developers
  built with gcc 5.2.0 (GCC)
  configuration: --enable-gpl --enable-version3 --disable-w32threads --enable-avisynth --enable-bzlib --enable-fontconfig --enable-frei0r --enable-gnutls                                                                                     --enable-iconv --enable-libass --enable-libbluray --enable-libbs2b --enable-libcaca --enable-libdcadec --enable-libfreetype --enable-libgme --enable-lib                                                                                    gsm --enable-libilbc --enable-libmodplug --enable-libmp3lame --enable-libopencore-amrnb --enable-libopencore-amrwb --enable-libopenjpeg --enable-libopus                                                                                     --enable-librtmp --enable-libschroedinger --enable-libsoxr --enable-libspeex --enable-libtheora --enable-libtwolame --enable-libvidstab --enable-libvo-aa                                                                                    cenc --enable-libvo-amrwbenc --enable-libvorbis --enable-libvpx --enable-libwavpack --enable-libwebp --enable-libx264 --enable-libx265 --enable-libxavs -                                                                                    -enable-libxvid --enable-lzma --enable-decklink --enable-zlib
  libavutil      54. 31.100 / 54. 31.100
  libavcodec     56. 60.100 / 56. 60.100
  libavformat    56. 40.101 / 56. 40.101
  libavdevice    56.  4.100 / 56.  4.100
  libavfilter     5. 40.101 /  5. 40.101
  libswscale      3.  1.101 /  3.  1.101
  libswresample   1.  2.101 /  1.  2.101
  libpostproc    53.  3.100 / 53.  3.100
[mjpeg @ 0461caa0] Changeing bps to 8
Input #0, avi, from '0_bf55f096-8ced-11e7-82b5-d8cb8abce51b.avi':
  Duration: 00:02:27.84, start: 0.000000, bitrate: 232305 kb/s
    Stream #0:0: Video: mjpeg (MJPG / 0x47504A4D), yuvj422p(pc, bt470bg/unknown/unknown), 1280x1024 [SAR 1:1 DAR 5:4], 232363 kb/s, 25 fps, 25 tbr, 25 tb                                                                                    n, 25 tbc
    Metadata:
      title           : stream name
File 'output.mp4' already exists. Overwrite ? [y/N] y
No pixel format specified, yuvj422p for H.264 encoding chosen.
Use -pix_fmt yuv420p for compatibility with outdated media players.
[libx264 @ 0460dcc0] using SAR=1/1
[libx264 @ 0460dcc0] using cpu capabilities: MMX2 SSE2Fast SSSE3 SSE4.2 AVX FMA3 AVX2 LZCNT BMI2
[libx264 @ 0460dcc0] profile High 4:2:2, level 3.2, 4:2:2 8-bit
[libx264 @ 0460dcc0] 264 - core 148 r2638 7599210 - H.264/MPEG-4 AVC codec - Copyleft 2003-2015 - http://www.videolan.org/x264.html - options: cabac=1 re                                                                                    f=3 deblock=1:0:0 analyse=0x3:0x113 me=hex subme=7 psy=1 psy_rd=1.00:0.00 mixed_ref=1 me_range=16 chroma_me=1 trellis=1 8x8dct=1 cqm=0 deadzone=21,11 fas                                                                                    t_pskip=1 chroma_qp_offset=-2 threads=12 lookahead_threads=2 sliced_threads=0 nr=0 decimate=1 interlaced=0 bluray_compat=0 constrained_intra=0 bframes=3                                                                                     b_pyramid=2 b_adapt=1 b_bias=0 direct=1 weightb=1 open_gop=0 weightp=2 keyint=250 keyint_min=25 scenecut=40 intra_refresh=0 rc_lookahead=40 rc=crf mbtree                                                                                    =1 crf=20.0 qcomp=0.60 qpmin=0 qpmax=69 qpstep=4 ip_ratio=1.40 aq=1:1.00
Output #0, mp4, to 'output.mp4':
  Metadata:
    encoder         : Lavf56.40.101
    Stream #0:0: Video: h264 (libx264) ([33][0][0][0] / 0x0021), yuvj422p(pc), 1280x1024 [SAR 1:1 DAR 5:4], q=-1--1, 25 fps, 12800 tbn, 25 tbc
    Metadata:
      title           : stream name
      encoder         : Lavc56.60.100 libx264
Stream mapping:
  Stream #0:0 -> #0:0 (mjpeg (native) -> h264 (libx264))
Press [q] to stop, [?] for help
frame= 3696 fps= 27 q=-1.0 Lsize=  215126kB time=00:02:27.76 bitrate=11926.9kbits/s
video:215088kB audio:0kB subtitle:0kB other streams:0kB global headers:0kB muxing overhead: 0.017760%
[libx264 @ 0460dcc0] frame I:40    Avg QP:16.74  size:327738
[libx264 @ 0460dcc0] frame P:2783  Avg QP:20.78  size: 74093
[libx264 @ 0460dcc0] frame B:873   Avg QP:22.26  size:  1077
[libx264 @ 0460dcc0] consecutive B-frames: 52.9% 46.8%  0.3%  0.0%
[libx264 @ 0460dcc0] mb I  I16..4:  2.1% 86.8% 11.1%
[libx264 @ 0460dcc0] mb P  I16..4:  0.0%  5.0%  0.1%  P16..4: 29.8% 17.2% 11.8%  0.0%  0.0%    skip:36.1%
[libx264 @ 0460dcc0] mb B  I16..4:  0.0%  0.0%  0.0%  B16..8: 14.7%  0.0%  0.0%  direct: 0.4%  skip:84.9%  L0:47.5% L1:52.1% BI: 0.3%
[libx264 @ 0460dcc0] 8x8 transform intra:95.1% inter:70.0%
[libx264 @ 0460dcc0] coded y,uvDC,uvAC intra: 98.1% 100.0% 100.0% inter: 25.4% 36.2% 32.8%
[libx264 @ 0460dcc0] i16 v,h,dc,p:  2%  3%  6% 89%
[libx264 @ 0460dcc0] i8 v,h,dc,ddl,ddr,vr,hd,vl,hu:  9% 10% 37%  6%  8%  6%  7%  7% 10%
[libx264 @ 0460dcc0] i4 v,h,dc,ddl,ddr,vr,hd,vl,hu: 12% 12% 20% 11% 11%  8%  9%  7%  9%
[libx264 @ 0460dcc0] i8c dc,h,v,p: 82%  1%  4% 14%
[libx264 @ 0460dcc0] Weighted P-Frames: Y:9.1% UV:2.6%
[libx264 @ 0460dcc0] ref P L0: 59.3% 13.8%  7.6% 15.5%  3.8%
[libx264 @ 0460dcc0] ref B L0: 99.2%  0.8%
[libx264 @ 0460dcc0] ref B L1: 100.0%  0.0%
[libx264 @ 0460dcc0] kb/s:11918.25
